<svg xmlns="http://www.w3.org/2000/svg" viewBox="0 0 1913.38 756"><defs><style>.cls-1{fill:#6366f1;}</style></defs><title>logo-text</title><g id="katman_2" data-name="katman 2"><g id="logo"><g id="logo-2" data-name="logo"><polygon class="cls-1" points="596.38 0 677.38 0 677.38 95 596.38 94.69 596.38 0"/><polygon class="cls-1" points="596.07 131 677.38 131.62 677.38 212 596.38 212 596.07 131"/><polygon class="cls-1" points="596.07 248 677.38 248 677.38 309 596.38 308.69 596.07 248"/><rect class="cls-1" x="596.38" y="345" width="81" height="83"/><polygon class="cls-1" points="596.46 447 677.38 447 677.38 756 597.38 756 596.46 447"/><path class="cls-1" d="M14.46,626S.31,625.38,0,643.54C0,661.69,14.15,662,14.15,662l110.77-.31s11.7-.61,12-18.15-12-17.54-12-17.54Z"/><path class="cls-1" d="M14.46,472S.31,471.38,0,489.54C0,507.69,14.15,508,14.15,508l110.77-.31s11.7-.61,12-18.15-12-17.54-12-17.54Z"/><path class="cls-1" d="M14.46,249S.31,248.38,0,266.54C0,284.69,14.15,285,14.15,285l110.77-.31s11.7-.61,12-18.15-12-17.54-12-17.54Z"/><path class="cls-1" d="M14.46,95S.31,94.38,0,112.54C0,130.69,14.15,131,14.15,131l110.77-.31s11.7-.61,12-18.15-12-17.54-12-17.54Z"/><path class="cls-1" d="M571.38,0V756h-506V686h72.29s25.24,0,24.93-42.38S137.67,600,137.67,600H65.38V533h72.29s25.24,0,24.93-42.38S137.67,447,137.67,447H65.38V309h71.71s25,0,24.73-41.73S137.09,224,137.09,224H65.38V158h71.77s25.06,0,24.75-44.24S137.15,72,137.15,72H65.38l.31-72ZM389.65,450c166.47-.62,166.47-248,0-248H223.38V574h37V450ZM261.38,239H389.63c115.83,0,115.83,177,0,177H261.38Z"/></g><path class="cls-1" d="M752.26,350l3.12,29.27c16.08-28.37,41.09-34.22,64.76-34.22,21.44,0,42,7.65,54.49,18.91l-21,40.53c-11.17-9-21.89-13.51-38.86-13.51-31.71,0-59.4,19.81-59.4,60.79V572h-46V350Z"/><path class="cls-1" d="M959.66,285.26c0,38.25-57.6,38.25-57.6,0C902.06,247.46,959.66,247.46,959.66,285.26ZM907.38,349V572h46V349Z"/><path class="cls-1" d="M1232.7,350l-94,223h-50.8L993.51,350h51.26l29.67,71.49,39.12,103,35.06-94L1181.89,350Z"/><path class="cls-1" d="M1421.83,257c59.85,0,107.1,27.45,107.1,90,0,26.55-14,50.4-43.65,62.55,37.8,11.25,53.55,48.6,53.55,72.45,0,68.85-54.9,90-117,90H1277.38V257Zm-94.45,131h94.9c37.77,0,56.66-14.84,56.66-39.58,0-22-19.34-45.42-57.11-45.42h-94.45Zm0,138h94.81c28,0,66.81-9,66.81-43.79,0-33.86-37.47-49.21-66.36-49.21h-95.26Z"/><path class="cls-1" d="M1641.4,285.26c0,38.25-57.6,38.25-57.6,0C1583.8,247.46,1641.4,247.46,1641.4,285.26Zm-52,63.74V572h46V349Z"/><path class="cls-1" d="M1866.38,572V450.07c0-33.22-26.67-60.78-59.89-60.77-36.91,0-62.11,30.16-62.11,66.6V572h-46V350h42.28l2.7,32.36c21.14-23.82,45.88-35.51,74.67-35.51,54,0,95.35,38.2,95.35,106.06V572Z"/></g></g></svg>