<?xml version="1.0" encoding="utf-8"?>
<!-- Generator: Adobe Illustrator 23.0.0, SVG Export Plug-In . SVG Version: 6.00 Build 0)  -->
<svg version="1.1" xmlns="http://www.w3.org/2000/svg" xmlns:xlink="http://www.w3.org/1999/xlink" x="0px" y="0px"
	 viewBox="0 0 245.8 245.8" style="enable-background:new 0 0 245.8 245.8;" xml:space="preserve">
<style type="text/css">
	.st0{fill:#6366F1;}
</style>
<g id="logo">
	<polygon class="st0" points="206.1,0.7 232.3,0.7 232.3,31.5 206.1,31.4 	"/>
	<polygon class="st0" points="206,43.1 232.3,43.3 232.3,69.3 206.1,69.3 	"/>
	<polygon class="st0" points="206.1,80.9 232.3,80.9 232.3,100.7 206.2,100.6 	"/>
	<rect x="206.1" y="112.3" class="st0" width="26.2" height="26.7"/>
	<polygon class="st0" points="206.1,145.1 232.3,145.1 232.3,244.8 206.4,244.8 	"/>
	<path class="st0" d="M18.2,202.8c0,0-4.6-0.2-4.7,5.7c0,5.9,4.6,6,4.6,6l36-0.1c0,0,3.8-0.2,3.9-5.9c0.1-5.7-3.9-5.7-3.9-5.7
		L18.2,202.8z"/>
	<path class="st0" d="M18.2,153c0,0-4.6-0.2-4.7,5.7c0,5.9,4.6,6,4.6,6l36-0.1c0,0,3.8-0.2,3.9-5.9c0.1-5.7-3.9-5.7-3.9-5.7
		L18.2,153z"/>
	<path class="st0" d="M18.2,81.1c0,0-4.6-0.2-4.7,5.7c0,5.9,4.6,6,4.6,6l36-0.1c0,0,3.8-0.2,3.9-5.9c0.1-5.7-3.9-5.7-3.9-5.7
		L18.2,81.1z"/>
	<path class="st0" d="M18.2,31.6c0,0-4.6-0.2-4.7,5.7c0,5.9,4.6,6,4.6,6l36-0.1c0,0,3.8-0.2,3.9-5.9s-3.9-5.7-3.9-5.7L18.2,31.6z"/>
	<path class="st0" d="M198.1,0.7v244.1H34.8v-22.7H58c0,0,8.1,0,8-13.6s-8-14-8-14H34.8v-21.8H58c0,0,8.1,0,8-13.6s-8-14-8-14H34.8
		v-44.4H58c0,0,8.1,0,8-13.5s-8-14-8-14H34.8V51.7H58c0,0,8.1,0,8-14.3s-8-13.5-8-13.5H34.8l0.1-23.2L198.1,0.7z M139.5,145.9
		c53.7-0.2,53.7-80,0-80c-17.8,0-35.8,0-53.7,0v120h12v-40H139.5z M97.9,77.9h41.3c37.3,0,37.3,57,0,57H97.9V77.9z"/>
</g>
<g id="klavuzlar">
</g>
</svg>
