<?xml version="1.0" standalone="no"?>
<svg version="1.1" id="Layer_1_15_" xmlns="http://www.w3.org/2000/svg" xmlns:xlink="http://www.w3.org/1999/xlink" x="0px" y="0px" viewBox="0 0 595.276 595.276" enable-background="new 0 0 595.276 595.276" xml:space="preserve">
<path id="color_x5F_7" fill-rule="evenodd" clip-rule="evenodd" fill="#374151" d="M201.058,377.941l11.061,82.336h-79.685
	c0.419-21.655,0.808-53.093,0.165-75.728l-0.006,0.011c-9.2-19.503-22.324-40.233-22.324-40.233
	c-0.034-9.942,18.154-19.135,18.154-19.135s13.434,16.763,21.052,24.258c1.298-0.463,2.497-0.853,3.529-1.171l0.018,0.221
	l-3.799,1.341c2.627,5.328,14.661,9.735,23.431,6.386c8.77-3.348,7.447-8.783,7.447-8.783l-5.516-0.995l-0.016-0.135
	c1.472,0.114,2.851,0.291,4.154,0.513c7.374-8.761,20.199-25.164,20.199-25.164s16.464,7.137,17.647,17.008
	C216.569,338.673,201.982,364.879,201.058,377.941z"></path>
<path id="color_x5F_6" fill-rule="evenodd" clip-rule="evenodd" fill="#6d28d9" d="M121.774,421.35
	c3.936-2.836,7.732-3.762,11.161-3.642c-0.038,15.081-0.264,30.377-0.5,42.569h-20.513c-0.748-0.947-5.707-7.956,4.393-16.124
	C116.314,444.154,111.556,428.714,121.774,421.35z M226.828,445.712c0,0,3.294-18.297-14.009-26.287
	c-2.306-1.065-4.463-1.784-6.489-2.248l5.79,43.1h38.569c0.652-2.92,1.376-9.245-3.089-13.692
	C237.443,436.47,226.828,445.712,226.828,445.712z M394.915,448.635c-0.864-6.302-5.742-13.094-15.536-11.528
	c-12.092,1.933-10.2,15.478-10.2,15.478c-3.471-1.491-10.646-3.563-16.222,3.14c-1.189,1.429-1.855,2.987-2.172,4.553h57.701
	l1.131-21.985C397.7,438.193,394.915,448.635,394.915,448.635z M335.328,183.488c-2.196-0.094-3.947,0.517-5.252,1.834
	c-1.307,1.317-2.007,3.091-2.103,5.321l-0.276,6.429c-0.097,2.266,0.453,4.12,1.649,5.562c1.196,1.442,2.892,2.209,5.089,2.304
	c2.178,0.093,3.93-0.526,5.253-1.86c1.324-1.333,2.035-3.133,2.132-5.399l0.276-6.429c0.096-2.231-0.463-4.059-1.679-5.484
	C339.202,184.34,337.506,183.582,335.328,183.488z M456.198,172.348v74.139c-5.566-2.251-50.034-18.754-157.644-18.754
	c-91.723,0-144,19.01-144,19.01v-74.139c0,0,52.277-19.01,144-19.01C406.164,153.594,450.632,170.097,456.198,172.348z
	 M219.668,183.635L213,184.85l-0.127,21.817l-0.156,0.028l-9.032-20.149l-5.449,0.993l-1.358,22.122l-0.156,0.028l-7.853-20.444
	l-6.642,1.21l12.875,28.885l5.994-1.092l1.578-21.063l0.156-0.028l8.957,19.144l5.994-1.092L219.668,183.635z M253.203,210.534
	l-0.503-5.038l-15.483,1.545l-0.828-8.293l13.226-1.32l-0.508-5.091l-13.226,1.32l-0.707-7.086l15.483-1.545l-0.505-5.065
	l-21.834,2.179l3.051,30.573L253.203,210.534z M282.046,208.115l-0.392-5.048l-13.278,1.031l-1.987-25.584l-6.363,0.494l2.38,30.632
	L282.046,208.115z M313.315,196.731l-0.065-0.154l-6.152,0.468c0.148,1.946-0.257,3.419-1.212,4.417
	c-0.955,0.999-2.45,1.575-4.484,1.729c-1.964,0.149-3.609-0.44-4.935-1.767c-1.327-1.328-2.072-3.078-2.237-5.252l-0.488-6.416
	c-0.163-2.139,0.312-3.96,1.423-5.464s2.648-2.33,4.612-2.48c2.051-0.156,3.624,0.183,4.719,1.017
	c1.095,0.833,1.715,2.206,1.86,4.117l6.154-0.468l0.041-0.162c-0.171-3.408-1.434-5.93-3.789-7.568
	c-2.355-1.637-5.478-2.308-9.37-2.012c-3.769,0.286-6.784,1.692-9.042,4.218c-2.259,2.526-3.249,5.63-2.969,9.311l0.486,6.39
	c0.281,3.699,1.729,6.627,4.344,8.782c2.614,2.155,5.806,3.089,9.576,2.803c3.822-0.29,6.786-1.424,8.894-3.4
	C312.786,202.864,313.664,200.161,313.315,196.731z M348.498,191.55c0.16-3.724-0.962-6.803-3.366-9.239
	c-2.403-2.434-5.599-3.737-9.585-3.909c-3.989-0.171-7.275,0.854-9.86,3.074c-2.586,2.221-3.958,5.194-4.117,8.918l-0.275,6.402
	c-0.16,3.742,0.96,6.834,3.363,9.278s5.59,3.75,9.56,3.921c3.987,0.171,7.278-0.858,9.873-3.087
	c2.594-2.229,3.972-5.215,4.133-8.957L348.498,191.55z M390.879,183.343l-7.989-0.669l-10.219,21.851l-0.158-0.013l-6.39-23.242
	l-8.042-0.673l-2.564,30.617l6.36,0.533l1.675-20l0.16-0.013l6.024,20.671l4.336,0.363l9.371-19.302l0.155,0.039l-1.668,19.921
	l6.386,0.535L390.879,183.343z M422.12,187.759l-21.77-2.745l-3.843,30.483l21.77,2.745l0.633-5.024l-15.438-1.946l1.042-8.269
	l13.188,1.663l0.64-5.076l-13.188-1.663l0.891-7.065l15.438,1.946L422.12,187.759z"></path>
<path id="color_x5F_5" fill-rule="evenodd" clip-rule="evenodd" fill="#ffffff" d="M183.558,293.242
	c0,0,3.261,25.279,2.7,32.796c-0.39,5.228-4.396,13.604-12.067,17.086l0.393,3.327l5.516,0.995c0,0,1.323,5.435-7.447,8.783
	c-8.769,3.348-20.804-1.059-23.431-6.386l3.799-1.341l-0.765-9.295c-3.27-3.159-4.337-6.495-4.337-6.495s-9.384,1.873-8.248-11.061
	c0,0,1.856-4.188,6.924-0.57l-2.009-10.752c0,0-2.711-12.247,14.195-10.891C172.698,300.554,183.558,293.242,183.558,293.242z
	 M494.644,406.421l-0.116,0.017c-6.392,2.301-13.32,3.571-19.891,2.959l-2.181,0.324l5.161,50.555h17.711
	C497.059,428.334,494.644,406.421,494.644,406.421z M399.431,399.955l-2.016-0.345l-2.2,4.218l3.484,2.934
	c0,0-17.996-13.221-21.913-13.233c-1.415-0.005-15.238,0.107-17.509-1.108c-2.271-1.214-3.168,2.935-0.896,4.15
	c2.271,1.214,5.459,1.541,5.459,1.541s-8.186,4.385-10.607,3.863c-2.421-0.523-5.71,1.301-5.71,1.301s-0.612,4.164,1.585,5.725
	c2.197,1.56,17.634,3.059,22.307,1.534s6.351-4.903,6.351-4.903s4.401,13.081,14.792,19.071c0,0,10.481,5.005,17.794-0.657
	l1.022-19.872c-3.063-0.515-7.098-1.424-9.79-2.92C400.816,400.827,400.101,400.39,399.431,399.955z M462.402,312.415l1.116-10.844
	c0,0,1.047-7.727-6.738-9.626c-4.222,3.703-13.03,10.982-14.213,8.365c-0.839-1.855,0.489-5.23,1.899-7.967
	c-11.843,0.597-21.054-4.556-21.054-4.556s-1.172,25.376,0,32.796c0.815,5.161,5.479,13.153,13.383,15.984l-0.118,3.336
	l-5.397,1.439c0,0-0.869,5.506,8.115,8.115s20.577-2.753,22.75-8.26l-3.883-1.022v-9.295c2.989-3.406,3.776-6.806,3.776-6.806
	s9.474,1.093,7.288-11.661C469.326,312.415,467.139,308.406,462.402,312.415z M247.527,265.129
	c-5.109-3.049-15.762,11.101-15.762,11.101l-0.552,0.736c1.349-6.133,1.717-9.69,1.472-10.426c-0.336-1.008-3.164-2.064-5.152,0.859
	c-3.128,4.6-5.063,21.434-5.063,21.434l-22.555,33.295c3.011,1.453,12.069,6.25,15.437,12.761
	c11.357-14.739,20.561-37.807,20.561-37.807c8.629-1.8,10.383-11.014,14.926-18.888
	C253.599,273.408,254.776,269.455,247.527,265.129z M95.363,272.7c0,0-2.807-4.026-4.308-4.277s-2.6,1.371-2.32,2.396
	s1.502,3.281,1.4,5.127c-0.023,0.422-0.148,0.903-0.305,1.44l-0.196,7.621c-1.245-3.315-0.334-5.807,0.196-7.621l0.06-2.332
	c0,0-6.708-13.171-11.733-9.985c-7.129,4.52-6.158,9.18-3.493,14.303c1.993,3.83,2.537,15.638,11.211,17.204
	c0,0,13.335,28.537,25.799,42.766c2.492-4.587,7.808-8.657,11.791-11.241l2.505-2.419l-26.878-37.715
	C99.091,287.968,98.902,277.187,95.363,272.7z"></path>
<path id="color_x5F_4" fill-rule="evenodd" clip-rule="evenodd" fill="#374151" d="M132.929,407.451
	c0.013,3.382,0.014,6.813,0.005,10.257c-3.429-0.12-7.225,0.806-11.161,3.642c-10.218,7.364-5.459,22.803-5.459,22.803
	c-10.1,8.167-5.141,15.177-4.393,16.124H70.403c-2.304-4.662-12.829-27.899-6.857-52.384c0,0,25.118,3.879,34.563,23.483
	c0,0-0.535-19.782,0.535-27.98c1.314-10.075,2.985-20.585,2.985-20.585C115.581,387.65,125.659,396.932,132.929,407.451z
	 M523.62,439.285c0,0,0.964-12.186,0.429-20.918c-0.601-9.81-3.386-18.891-3.386-18.891c-11.298,3.918-19.367,11.324-25.128,19.655
	c0.452,9.528,0.729,23.864-0.207,41.147h44.829c0.732-0.774,12.234-13.254,13.655-35.03
	C553.812,425.247,531.107,421.637,523.62,439.285z M436.165,267.017c0,0-4.857-5.671-9.247-6.07
	c-2.689-0.245-1.222,7.824-1.222,7.824c-15.31-1.725-16.838,10.867-12.958,19.56c2.677,5.997,9.58,8.932,9.58,8.932l0.735,0.698
	c0.153-5.718,0.358-10.172,0.358-10.172s9.211,5.153,21.054,4.556c-1.411,2.737-2.738,6.112-1.899,7.967
	c1.183,2.617,9.991-4.662,14.213-8.365c7.785,1.899,6.738,9.626,6.738,9.626l-1.116,10.844c4.737-4.008,6.924,0,6.924,0
	c2.186,12.754-7.288,11.661-7.288,11.661s-0.787,3.401-3.776,6.806v0.508l0.132,0.125c16.762-7.288,30.61-35.711,19.313-53.931
	C468.066,262.034,436.165,267.017,436.165,267.017z M179.708,274.413c0,0-42.924-3.247-51.285,13.097
	c-9.796,19.15,6.391,46.433,23.754,52.341l0.122-0.136l-0.042-0.508c-3.27-3.159-4.337-6.495-4.337-6.495s-9.384,1.873-8.248-11.061
	c0,0,1.856-4.188,6.924-0.57l-2.009-10.752c0,0-2.711-12.247,14.195-10.891c13.916,1.116,24.776-6.196,24.776-6.196
	s0.572,4.438,1.196,10.143l0.678-0.759C185.432,302.626,198.129,277.08,179.708,274.413z"></path>
<path id="color_x5F_3" fill-rule="evenodd" clip-rule="evenodd" fill="#ffffff" d="M213,184.85l6.668-1.215l-1.888,31.574
	l-5.994,1.092l-8.957-19.144l-0.156,0.028l-1.578,21.063l-5.994,1.092l-12.875-28.885l6.642-1.21l7.853,20.444l0.156-0.028
	l1.358-22.122l5.449-0.993l9.032,20.149l0.156-0.028L213,184.85z M237.217,207.04l-0.828-8.293l13.226-1.32l-0.508-5.091
	l-13.226,1.32l-0.707-7.086l15.483-1.545l-0.505-5.065l-21.834,2.179l3.051,30.573l21.834-2.179l-0.503-5.038L237.217,207.04z
	 M268.376,204.098l-1.987-25.584l-6.363,0.494l2.38,30.632l19.642-1.526l-0.392-5.048L268.376,204.098z M313.25,196.578
	l-6.152,0.468c0.148,1.946-0.257,3.419-1.212,4.417c-0.955,0.999-2.45,1.575-4.484,1.729c-1.964,0.149-3.609-0.44-4.935-1.767
	c-1.327-1.328-2.072-3.078-2.237-5.252l-0.488-6.416c-0.163-2.139,0.312-3.96,1.423-5.464s2.648-2.33,4.612-2.48
	c2.051-0.156,3.624,0.183,4.719,1.017c1.095,0.833,1.715,2.206,1.86,4.117l6.154-0.468l0.041-0.162
	c-0.171-3.408-1.434-5.93-3.789-7.568c-2.355-1.637-5.478-2.308-9.37-2.012c-3.769,0.286-6.784,1.692-9.042,4.218
	c-2.259,2.526-3.249,5.63-2.969,9.311l0.486,6.39c0.281,3.699,1.729,6.627,4.344,8.782c2.614,2.155,5.806,3.089,9.576,2.803
	c3.822-0.29,6.786-1.424,8.894-3.4c2.106-1.976,2.984-4.679,2.635-8.109L313.25,196.578z M345.132,182.311
	c2.404,2.435,3.526,5.515,3.366,9.239l-0.275,6.402c-0.161,3.742-1.539,6.727-4.133,8.957c-2.595,2.229-5.886,3.258-9.873,3.087
	c-3.97-0.17-7.156-1.477-9.56-3.921s-3.524-5.536-3.363-9.278l0.275-6.402c0.16-3.724,1.532-6.696,4.117-8.918
	c2.585-2.22,5.871-3.246,9.86-3.074C339.533,178.574,342.729,179.877,345.132,182.311z M340.417,185.765
	c-1.214-1.425-2.911-2.184-5.089-2.277c-2.196-0.094-3.947,0.517-5.252,1.834c-1.307,1.317-2.007,3.091-2.103,5.321l-0.276,6.429
	c-0.097,2.266,0.453,4.12,1.649,5.562c1.196,1.442,2.892,2.209,5.089,2.304c2.178,0.093,3.93-0.526,5.253-1.86
	c1.324-1.333,2.035-3.133,2.132-5.399l0.276-6.429C342.191,189.018,341.632,187.19,340.417,185.765z M372.67,204.526l-0.158-0.013
	l-6.39-23.242l-8.042-0.673l-2.564,30.617l6.36,0.533l1.675-20l0.16-0.013l6.024,20.671l4.336,0.363l9.371-19.302l0.155,0.039
	l-1.668,19.921l6.386,0.535l2.564-30.617l-7.989-0.669L372.67,204.526z M396.507,215.497l21.77,2.745l0.633-5.024l-15.438-1.946
	l1.042-8.269l13.188,1.663l0.64-5.076l-13.188-1.663l0.891-7.065l15.438,1.946l0.637-5.05l-21.77-2.745L396.507,215.497z
	 M152.177,339.85c-2.62-0.891-5.211-2.276-7.691-4.04v8.376c1.789,1.978,3.501,3.799,4.99,5.263
	c1.298-0.463,2.497-0.853,3.529-1.171l0.018,0.221l-0.723-8.786L152.177,339.85z M149.416,163.871c-4.277,0-4.931,3.089-4.931,3.089
	v110.143c3.184-0.871,6.563-1.496,9.921-1.94V166.96C154.406,166.96,153.7,163.871,149.416,163.871z M458.262,331.39v8.653
	c2.099,0.517,4.907,1.304,7.857,2.378V326.52c-2.441,2.118-5.044,3.829-7.725,4.994L458.262,331.39z M461.129,163.871
	c-4.277,0-4.931,3.089-4.931,3.089v99.797c3.348,0.406,6.754,1.106,9.921,2.239V166.96
	C466.119,166.96,465.413,163.871,461.129,163.871z"></path>
<path id="color_x5F_2" fill="#e9f1ff" d="M388.57,127.341h-80.912c0,0,0.263-32.016,24.384-32.843
	c18.572-0.637,22.954,17.187,22.954,17.187S377.161,97.937,388.57,127.341z M411.799,114.052
	c-12.602,0.45-13.288,13.288-13.288,13.288h28.791C427.302,127.341,425.58,113.56,411.799,114.052z M474.637,409.397
	c7.495,0.699,15.46-1.048,22.557-3.982c-1.334-13.753-9.472-44.566-12.291-48.376c-1.251-2.023-2.99-4.091-4.874-5.975
	c-1.461-1.894-3.532-3.535-5.879-4.937c-0.689-0.471-1.353-0.889-1.969-1.227l-0.027,0.123c-4.855-2.504-10.367-4.112-13.892-4.98
	v0.133l3.883,1.022c-2.174,5.506-13.766,10.868-22.75,8.26s-8.115-8.115-8.115-8.115l5.397-1.439l0.005-0.136
	c-12.266,1.973-18.014,7.577-20.672,11.876c-2.509,3.15-5.422,7.56-8.418,13.675c-6.983,14.256-13.916,30.048-13.916,30.048
	s3.054,3.189,7.905,5.884c2.692,1.495,6.727,2.405,9.79,2.92l-2.886,56.105h69.132l-5.161-50.555L474.637,409.397z M126.753,204.953
	c0,0-19.55-12.125-29.613,13.809h47.345v-28.914C130.223,190.877,126.753,204.953,126.753,204.953z"></path>
<path id="color_x5F_1" fill="#000000" d="M464.312,375.284c0.128,0.538-0.205,1.076-0.742,1.203
	c-0.077,0.019-0.155,0.027-0.231,0.027c-0.453,0-0.863-0.31-0.972-0.77c-0.46-1.943-0.987-4.021-1.724-6.049
	c-0.189-0.52,0.079-1.093,0.598-1.281c0.521-0.188,1.093,0.079,1.281,0.598C463.294,371.137,463.838,373.282,464.312,375.284z
	 M553.148,460.119c0,0.553-0.448,1-1,1l-493.536-0.1c-0.553,0-1-0.448-1-1c0-0.553,0.448-1,1-1l10.067,0.002
	c-1.679-3.331-12.316-25.902-6.106-51.365c0.124-0.505,0.615-0.833,1.127-0.75c0.238,0.037,22.789,3.679,33.82,21.493
	c-2.081-25.033,3.067-45.585,3.144-45.858c0.075-0.266,0.255-0.488,0.5-0.615c0.245-0.128,0.531-0.148,0.791-0.059
	c13.076,4.534,22.767,12.823,29.949,22.331c-0.042-6.849-0.137-13.428-0.303-19.394c-9.063-19.169-22.048-39.736-22.178-39.942
	c-0.101-0.159-0.155-0.344-0.155-0.532c-0.006-1.658,0.446-3.284,1.207-4.849c-11.423-13.329-23.537-38.343-25.292-42.026
	c-6.706-1.547-8.746-8.846-10.107-13.716c-0.456-1.63-0.849-3.038-1.301-3.906c-2.677-5.144-4.063-10.595,3.845-15.609
	c1.039-0.658,2.193-0.822,3.428-0.482c2.511,0.688,4.943,3.412,6.757,5.972c0.133-0.462,0.38-0.913,0.727-1.296
	c0.714-0.79,1.693-1.149,2.688-0.981c1.778,0.298,4.249,3.667,4.963,4.692c3.366,4.266,3.838,13.636,3.899,15.507l26.615,37.346
	c0.701-0.388,1.165-0.627,1.274-0.682c0.422-0.212,0.937-0.103,1.231,0.268c0.104,0.13,7.44,9.27,14.282,17.001v-5.24
	c-6.616-4.819-12.429-12.284-15.885-20.813c-4.169-10.289-4.193-20.397-0.068-28.462c2.727-5.331,8.836-8.662,15.953-10.724v-56.568
	H97.14c-0.33,0-0.639-0.163-0.825-0.435s-0.227-0.619-0.107-0.927c3.413-8.795,8.283-14.304,14.478-16.376
	c6.733-2.251,13.002,0.238,15.483,1.474c1.239-3.469,5.744-13.206,17.317-14.539V166.96c0-0.069,0.007-0.139,0.021-0.207
	c0.284-1.343,1.885-3.882,5.909-3.882c4.019,0,5.659,2.529,5.965,3.867c0.017,0.073,0.025,0.147,0.025,0.223v4.296
	c8.308-2.763,59.772-18.662,143.149-18.662c100.889,0,146.899,14.706,156.644,18.306v-3.94c0-0.069,0.007-0.139,0.021-0.207
	c0.284-1.343,1.885-3.882,5.909-3.882c4.019,0,5.659,2.529,5.965,3.866c0.017,0.073,0.025,0.148,0.025,0.223v101.303
	c4.683,1.792,8.816,4.566,11.438,8.794c4.758,7.674,5.561,17.716,2.261,28.278c-2.68,8.576-7.688,16.33-13.698,21.652v14.717
	c5.177,1.952,10.691,4.813,13.737,8.785c1.888,1.9,3.632,3.979,4.896,6.023c2.866,3.868,11.071,34.726,12.437,48.806
	c0.043,0.438-0.206,0.853-0.613,1.021c-0.615,0.254-1.229,0.485-1.843,0.716c0.167,1.36,0.513,4.511,0.818,9.3
	c5.769-7.64,13.557-14.302,24.067-17.947c0.261-0.091,0.547-0.069,0.791,0.059c0.245,0.127,0.426,0.35,0.5,0.615
	c0.062,0.221,4.403,16.11,2.737,35.906c9.385-13.175,29.108-10.761,29.322-10.729c0.51,0.081,0.874,0.537,0.841,1.053
	c-1.261,19.333-10.212,30.623-13.11,33.805l10.449,0.002C552.701,459.119,553.148,459.567,553.148,460.119z M524.098,439.995
	c-0.834,6.212-2.31,12.694-4.714,19.118l19.776,0.004c0.04-0.193,0.119-0.38,0.272-0.526c0.118-0.111,11.617-11.277,13.313-32.463
	C548.539,425.714,530.45,425.489,524.098,439.995z M496.73,419.496c0.456,8.969,0.672,22.272-0.354,39.246
	c-0.008,0.131-0.042,0.254-0.094,0.366l21.019,0.004c0.01-0.074,0.009-0.149,0.037-0.221c9.835-25.756,4.249-52.653,2.91-58.225
	C509.821,404.553,502.241,411.588,496.73,419.496z M493.802,407.744c-5.461,1.853-10.824,2.809-15.813,2.81
	c-1.53,0-3.018-0.102-4.47-0.28l5.046,48.83l15.925,0.003c-0.072-0.149-0.12-0.31-0.11-0.486
	C496.088,430.346,494.341,412.344,493.802,407.744z M484.099,357.634c-2.415-3.898-6.579-7.902-10.077-10.382
	c-3.49-2.163-7.692-3.788-11.313-4.923c-2.494,4.668-10.634,8.794-18.371,8.794c-1.787,0-3.553-0.221-5.222-0.705
	c-7.277-2.112-8.627-6.09-8.828-8.066c-13.862,4.643-15.487,14.729-15.503,14.845l-5.237,101.893l67.006,0.014l-5.079-49.151
	c-1.063-0.198-2.11-0.429-3.117-0.73c-0.401-0.12-0.686-0.478-0.712-0.896c-0.528-8.404-1.881-17.268-4.254-27.893
	c-0.121-0.539,0.219-1.073,0.758-1.193c0.537-0.12,1.074,0.219,1.193,0.758c2.331,10.433,3.688,19.194,4.253,27.497
	c7.593,2.06,16.958,1.097,26.526-2.726C494.603,390.919,486.781,361.26,484.099,357.634z M225.843,445.536
	c0.127-0.717,2.931-17.641-13.444-25.203c-1.713-0.791-3.336-1.383-4.884-1.825l5.448,40.543l36.937,0.008
	c0.503-3.003,0.652-8.122-3.006-11.765c-9.358-9.319-19.004-1.176-19.411-0.826c-0.32,0.277-0.781,0.323-1.148,0.113
	C225.966,446.371,225.769,445.953,225.843,445.536z M251.943,459.059l98.106,0.02c0.405-1.37,1.08-2.723,2.138-3.994
	c3.994-4.8,9.595-6.19,15.899-3.997c-0.063-3.858,0.851-13.324,11.134-14.968c4.263-0.683,8.069,0.116,11.021,2.303
	c2.272,1.686,4.003,4.174,4.966,7.067c1.768-3.175,5.706-7.842,13.456-8.152l0.586-11.398c-0.461,0.262-0.933,0.51-1.432,0.712
	c-1.992,0.809-4.054,1.104-6.002,1.104c-5.113,0-9.444-2.033-9.692-2.151c-8.45-4.869-13.004-14.017-14.623-17.879
	c-1.053,1.217-2.89,2.817-5.777,3.76c-4.914,1.6-20.607,0.17-23.196-1.67c-2.666-1.894-2.023-6.491-1.995-6.686
	c0.045-0.309,0.231-0.578,0.505-0.729c0.148-0.081,3.648-1.999,6.406-1.403c1.087,0.234,4.376-1.058,7.326-2.459
	c-0.935-0.251-1.957-0.602-2.86-1.085c-1.877-1.004-2.267-3.419-1.443-4.958c0.673-1.263,1.99-1.646,3.282-0.956
	c0.438,0.234,2.888,0.991,16.065,0.991c0.165,0,0.331-0.001,0.5-0.001h0.477c2.966,0.01,12.072,6.043,17.905,10.133l1.833-3.515
	l0.001-0.001c-2.204-1.666-3.492-3.001-3.575-3.087c-0.279-0.292-0.355-0.724-0.193-1.094c0.069-0.158,7.467-15.684,14.379-29.797
	c2.061-4.207,5.145-9.562,7.494-13.194c2.467-4.516,8.161-10.754,21.079-13.048l0.06-1.688c-1.472-0.591-2.888-1.365-4.226-2.333
	c-5.369-3.888-8.45-9.915-9.121-14.164c-0.689-4.363-0.59-14.602-0.381-22.534c-0.039-0.011-0.078-0.008-0.117-0.024
	c-0.296-0.126-7.297-3.161-10.102-9.444c-2.032-4.554-3.139-11.604,0.434-16.487c1.745-2.386,5.275-5.035,12.251-4.59
	c-0.286-2.126-0.52-5.638,0.764-7.041c0.45-0.493,1.062-0.725,1.736-0.67c4.056,0.369,8.277,4.626,9.542,6
	c2.168-0.3,10.064-1.232,18.646-0.348v-18.428c-7.688-2.946-53.087-18.44-156.644-18.44c-85.765,0-137.557,16.86-143.149,18.773
	v26.494c12.069-1.462,23.467-0.654,24.378-0.584c4.416,0.637,7.483,2.598,9.184,5.834c4.541,8.641-2.386,23.408-3.119,24.921
	c0.843,7.821,1.728,17.638,1.407,21.942s-2.904,10.583-7.952,14.912c-1.258,1.079-2.613,1.966-4.037,2.678l0.224,1.895l2.571,0.464
	c7.303-8.688,19.94-24.843,20.073-25.013c0.279-0.357,0.767-0.484,1.185-0.302c0.037,0.016,0.127,0.056,0.248,0.11l21.938-32.384
	c0.262-2.187,2.146-17.144,5.201-21.637c1.642-2.415,3.688-2.416,4.495-2.305c1.172,0.163,2.149,0.843,2.433,1.692
	c0.333,0.999-0.113,4.109-0.615,6.854c3.535-4.165,10.613-11.435,15.021-8.808c8.227,4.911,6.322,9.817,3.666,14.421
	c-1.106,1.918-2.057,3.943-2.976,5.902c-2.824,6.019-5.496,11.713-12.086,13.346c-1.392,3.387-9.885,23.537-20.123,37.058
	c0.525,1.137,0.893,2.324,1.041,3.557c0.025,0.21-0.017,0.422-0.119,0.605c-0.145,0.261-14.431,26.059-15.38,38.773l5.165,38.438
	c1.894,0.479,3.892,1.169,6.01,2.147c14.145,6.533,15.034,19.849,14.785,25.137c3.657-2.246,12.153-5.872,20.282,2.223
	C252.489,450.043,252.479,455.617,251.943,459.059z M231.731,266.837c-0.04-0.046-0.41-0.328-1.027-0.343
	c-0.852-0.037-1.687,0.5-2.343,1.466c-2.955,4.344-4.878,20.819-4.897,20.985c-0.019,0.16-0.075,0.313-0.166,0.447l-21.91,32.343
	c3.499,1.78,10.511,5.84,14.071,11.338c10.734-14.498,19.433-36.13,19.526-36.364c0.124-0.312,0.396-0.54,0.725-0.608
	c5.999-1.251,8.414-6.398,11.21-12.357c0.937-1.997,1.905-4.061,3.054-6.051c2.498-4.329,3.747-7.703-2.958-11.705
	c-3.156-1.887-10.539,5.65-14.451,10.843c-0.098,0.129-0.224,0.218-0.36,0.285c-0.004,0.019-0.01,0.045-0.014,0.064
	c-0.118,0.539-0.655,0.88-1.191,0.762c-0.54-0.119-0.88-0.652-0.762-1.191C231.748,269.883,231.823,267.227,231.731,266.837z
	 M150.732,350.369c3.226,4.203,13.542,7.989,21.565,4.925c6.141-2.345,6.862-5.647,6.879-6.999l-4.77-0.86
	c-0.433-0.078-0.764-0.431-0.815-0.867l-0.239-2.024c-2.118,0.78-4.372,1.18-6.717,1.18c-0.551,0-1.107-0.022-1.667-0.066
	c-0.928-0.073-1.806-0.195-2.642-0.355c-0.421-0.08-1.391-0.425-1.187-1.253c0.186-0.758,0.959-0.835,1.317-0.763
	c0.839,0.17,1.722,0.302,2.669,0.376c4.879,0.39,9.213-1.015,12.877-4.156c4.587-3.935,6.979-9.778,7.26-13.543
	c0.468-6.272-1.814-25.489-2.503-31.065c-3.379,1.929-12.657,6.448-24.057,5.536c-5.53-0.45-9.399,0.548-11.501,2.947
	c-2.449,2.796-1.646,6.694-1.637,6.733l2.015,10.78c0.075,0.401-0.101,0.808-0.445,1.026c-0.343,0.222-0.787,0.208-1.119-0.029
	c-1.478-1.056-2.79-1.471-3.799-1.207c-0.887,0.234-1.392,0.956-1.564,1.251c-0.327,4.065,0.397,6.924,2.152,8.496
	c2.057,1.843,4.893,1.303,4.921,1.297c0.066-0.014,0.132-0.02,0.196-0.02c0.428,0,0.818,0.275,0.952,0.696
	c0.101,0.311,2.015,5.875,8.317,9.088c0.259,0.132,0.842,0.765,0.444,1.427c-0.356,0.594-0.969,0.519-1.209,0.398
	c-1.108-0.562-2.096-1.193-2.979-1.857l0.573,6.956c0.037,0.453-0.235,0.874-0.664,1.025L150.732,350.369z M442.848,293.378
	c-8.628,0.077-15.615-2.657-18.503-4.004c-0.229,5.602-0.923,24.866,0.054,31.054c0.588,3.717,3.441,9.325,8.319,12.856
	c3.896,2.82,8.312,3.854,13.126,3.074c12.673-2.055,15.196-12.403,15.22-12.508c0.114-0.496,0.591-0.833,1.089-0.769
	c0.027,0.001,2.921,0.29,4.792-1.704c1.604-1.706,2.084-4.599,1.429-8.598c-0.191-0.272-0.752-0.951-1.653-1.111
	c-1.017-0.182-2.291,0.34-3.672,1.51c-0.312,0.265-0.75,0.311-1.112,0.121c-0.36-0.19-0.569-0.581-0.528-0.987l1.116-10.844
	c0.009-0.069,0.488-4.005-2.172-6.581c-0.864-0.836-1.997-1.417-3.336-1.799c-4.051,3.556-10.507,8.769-13.543,8.769
	c-0.151,0-0.295-0.014-0.429-0.04c-0.634-0.128-1.127-0.517-1.389-1.096C440.82,298.875,441.669,295.99,442.848,293.378z
	 M432.271,342.113c0.127,1.354,1.119,4.561,7.403,6.385c8.216,2.383,18.146-2.213,21.01-6.65l-2.677-0.704
	c-0.438-0.115-0.745-0.513-0.745-0.967v-6.925c-2.531,2.255-6.095,4.27-11.098,5.081c-1.115,0.181-2.221,0.271-3.311,0.271
	c-1.75,0-3.456-0.246-5.105-0.703l-0.072,2.038c-0.016,0.439-0.316,0.817-0.741,0.931L432.271,342.113z M410.326,405.003
	c-3.003-0.548-6.66-1.449-9.231-2.877c-1.065-0.592-2.044-1.204-2.926-1.804l-1.827,3.503c1.325,0.944,2.363,1.701,2.947,2.131
	c0.445,0.327,0.541,0.952,0.214,1.397c-0.326,0.444-0.953,0.541-1.397,0.214c-6.856-5.036-18.709-13.03-21.324-13.039h-0.467
	c-15.138,0.002-16.934-0.918-17.512-1.227c-0.334-0.179-0.437-0.124-0.575,0.135c-0.318,0.594-0.231,1.795,0.623,2.252
	c2.073,1.109,5.059,1.425,5.088,1.428c0.438,0.045,0.794,0.37,0.88,0.802c0.085,0.431-0.122,0.867-0.51,1.075
	c-1.421,0.761-8.63,4.531-11.289,3.958c-1.442-0.31-3.485,0.453-4.562,0.966c-0.082,1.224,0.031,3.418,1.226,4.267
	c1.909,1.357,16.903,2.874,21.417,1.398c4.182-1.363,5.705-4.277,5.768-4.4c0.184-0.358,0.587-0.578,0.965-0.546
	c0.401,0.029,0.748,0.295,0.876,0.676c0.043,0.127,4.414,12.799,14.344,18.523c0.009,0,7.628,3.563,14.021,0.959
	c0.823-0.335,1.586-0.771,2.299-1.288L410.326,405.003z M412.692,359.01c-1.338,2.356-2.737,4.941-3.682,6.871
	c-6.111,12.477-12.776,26.17-14.14,29.256c1.018,0.961,3.615,3.251,7.196,5.241c2.261,1.256,5.564,2.082,8.364,2.605L412.692,359.01
	z M352.172,459.079l55.372,0.011l1.016-19.752c-10.055,0.498-12.565,9.135-12.679,9.556c-0.125,0.458-0.546,0.758-1.03,0.737
	c-0.474-0.031-0.861-0.391-0.927-0.861c-0.497-3.627-2.273-6.813-4.874-8.742c-2.544-1.885-5.742-2.534-9.513-1.935
	c-10.998,1.758-9.44,13.839-9.369,14.352c0.05,0.358-0.097,0.715-0.384,0.934c-0.286,0.221-0.67,0.268-1.001,0.124
	c-4.263-1.832-10.332-2.821-15.059,2.86C353.01,457.223,352.513,458.14,352.172,459.079z M465.119,328.631
	c-1.886,1.448-3.849,2.656-5.857,3.577v7.046c1.678,0.427,3.702,0.999,5.857,1.734V328.631z M436.319,268.004
	c-0.344,0.053-0.688-0.074-0.913-0.337c-0.047-0.054-4.648-5.368-8.578-5.725c-0.588,0.291-0.753,3.322-0.148,6.649
	c0.057,0.311-0.037,0.63-0.253,0.861c-0.217,0.23-0.525,0.347-0.843,0.311c-5.455-0.615-9.506,0.653-11.711,3.668
	c-2.524,3.45-2.611,9.138-0.222,14.49c2.033,4.555,6.774,7.279,8.453,8.128c0.137-4.539,0.291-7.936,0.308-8.309
	c0.016-0.346,0.21-0.659,0.513-0.828s0.67-0.168,0.975,0c0.097,0.055,8.817,4.808,19.947,4.435c1.032-1.937,2.043-3.457,2.295-3.827
	c0.313-0.457,0.934-0.575,1.39-0.264c0.456,0.311,0.575,0.933,0.265,1.389c-2.185,3.211-5.287,9.105-4.317,11.25
	c1.28,0.467,8.108-4.421,14.869-10.702c0.403-0.375,1.036-0.353,1.413,0.052c0.376,0.405,0.353,1.037-0.052,1.413
	c-0.269,0.25-0.61,0.562-0.982,0.901c1.17,0.466,2.194,1.089,3.034,1.907c3.38,3.292,2.776,8.037,2.749,8.237l-0.892,8.66
	c1.216-0.644,2.382-0.864,3.489-0.659c2.07,0.387,3.056,2.154,3.097,2.229c0.053,0.097,0.089,0.201,0.107,0.31
	c0.817,4.767,0.168,8.307-1.928,10.521c-1.862,1.967-4.333,2.301-5.613,2.329c-0.299,0.871-0.915,2.371-2.004,4.062
	c7.819-4.631,14.896-14.031,18.142-24.42c3.124-9.999,2.396-19.456-2.051-26.628C467.672,263.295,436.631,267.956,436.319,268.004z
	 M457.198,167.09v98.748c2.662,0.363,5.349,0.92,7.921,1.735V167.098c-0.148-0.454-0.924-2.227-3.99-2.227
	C458.063,164.871,457.324,166.689,457.198,167.09z M155.406,173.367v72.028c8.308-2.763,59.772-18.662,143.149-18.662
	c100.895,0,146.903,14.707,156.644,18.306v-72.004c-7.683-2.944-53.078-18.44-156.644-18.44
	C212.79,154.594,160.998,171.454,155.406,173.367z M143.485,217.762v-26.817c-12.437,1.52-15.622,13.687-15.762,14.248
	c-0.077,0.31-0.298,0.564-0.593,0.685c-0.295,0.121-0.632,0.094-0.903-0.074c-0.073-0.045-7.321-4.43-14.927-1.877
	c-5.278,1.773-9.538,6.424-12.676,13.835H143.485z M145.485,275.789c2.577-0.648,5.251-1.146,7.92-1.526V167.098
	c-0.148-0.454-0.923-2.227-3.99-2.227c-3.065,0-3.805,1.818-3.931,2.219v108.699H145.485z M149.644,337.708
	c-1.248-1.61-1.997-3.07-2.37-3.92c-1.284,0.073-3.781-0.053-5.805-1.866c-2.278-2.041-3.218-5.526-2.793-10.36
	c0.01-0.109,0.037-0.217,0.082-0.317c0.035-0.078,0.874-1.926,2.911-2.482c1.088-0.298,2.276-0.172,3.547,0.374l-1.612-8.624
	c-0.037-0.166-1.032-4.86,2.076-8.429c2.539-2.915,6.974-4.142,13.183-3.642c13.376,1.067,24.033-5.958,24.138-6.029
	c0.289-0.193,0.655-0.223,0.971-0.081c0.315,0.143,0.535,0.439,0.579,0.783c0.043,0.336,0.403,3.143,0.85,7.029
	c1.919-4.902,4.813-14.228,1.796-19.964c-1.406-2.674-3.902-4.236-7.632-4.776c-0.354-0.026-42.289-3.004-50.251,12.563
	c-3.857,7.54-3.807,17.058,0.141,26.8C133.562,324.901,141.43,333.73,149.644,337.708z M145.485,343.801
	c1.598,1.761,3.124,3.383,4.471,4.721l2.005-0.708l-0.593-7.203c-1.991-0.722-3.962-1.71-5.883-2.924V343.801z M111.535,337.63
	c3.36-5.127,9.665-9.402,13.422-11.645l-26.68-37.436c-0.117-0.165-0.182-0.361-0.186-0.563c-0.002-0.104-0.225-10.497-3.513-14.666
	c-1.377-1.971-3.119-3.813-3.688-3.911c-0.423-0.072-0.729,0.189-0.874,0.35c-0.268,0.296-0.356,0.653-0.316,0.797
	c0.071,0.26,0.212,0.608,0.373,1.011c0.484,1.218,1.146,2.886,1.061,4.434c-0.036,0.639-0.232,1.297-0.459,2.059
	c-0.509,1.705-1.143,3.827-0.104,6.595c0.194,0.517-0.067,1.093-0.584,1.288c-0.514,0.194-1.094-0.067-1.288-0.584
	c-1.277-3.398-0.504-5.983,0.059-7.871c0.191-0.64,0.356-1.193,0.379-1.597c0.004-0.069-0.002-0.142-0.002-0.213
	c-0.046-0.056-0.101-0.103-0.135-0.171c-1.239-2.43-5.177-8.934-8.479-9.837c-0.688-0.189-1.269-0.11-1.828,0.243
	c-6.229,3.949-5.869,7.756-3.142,12.997c0.547,1.052,0.967,2.553,1.453,4.29c1.336,4.781,3.167,11.329,9.049,12.392
	c0.319,0.058,0.591,0.267,0.728,0.561C86.911,296.43,99.563,323.357,111.535,337.63z M131.445,379.89
	c-0.056-1.504-0.117-2.958-0.184-4.353c-0.019-0.387,0.266-1.231,1.007-1.191c0.684,0.037,0.972,0.746,0.99,1.13
	c1.064,22.188,0.659,58.818,0.195,83.558l77.493,0.016l-10.813-80.494c-0.062-0.14-0.101-0.291-0.092-0.455
	c0.003-0.045,0.009-0.093,0.012-0.137l-1.971-14.674c0,0-0.075-1.245,0.542-1.419c1.138-0.321,1.403,0.91,1.403,0.91l1.175,8.744
	c3.386-12.91,12.896-30.44,14.331-33.046c-1.24-7.928-13.266-14.126-16.311-15.576c-2.318,2.956-12.346,15.715-18.9,23.572
	c0.367,0.084,0.66,0.364,0.75,0.733c0.063,0.257,1.423,6.332-8.061,9.954c-2.194,0.837-4.604,1.21-7.037,1.21
	c-7.613,0-15.456-3.646-17.647-8.089c-0.097-0.197-0.104-0.416-0.063-0.627c-6.844-6.861-17.584-20.074-20.101-23.193
	c-3.262,1.778-16.611,9.545-16.889,17.582C112.684,346.294,123.106,363.037,131.445,379.89z M112.281,459.03l19.171,0.004
	c0.22-11.708,0.427-26.077,0.471-40.318c-3.031,0.087-6.258,1.062-9.565,3.446c-9.525,6.864-5.134,21.549-5.088,21.696
	c0.121,0.391-0.009,0.815-0.327,1.072c-3.617,2.925-5.589,5.968-5.862,9.043C110.874,456.304,111.716,458.106,112.281,459.03z
	 M106.209,459.029l3.808,0.001c-0.583-1.254-1.115-3.031-0.932-5.189c0.295-3.496,2.344-6.873,6.092-10.044
	c-0.814-3.124-3.567-16.354,6.013-23.258c3.398-2.449,7.026-3.7,10.74-3.794c0.006-3.07,0.004-6.125-0.007-9.142
	c-6.942-9.888-16.483-18.663-29.597-23.481C100.78,390.447,93.856,426.43,106.209,459.029z M70.763,459.022l33.31,0.007
	c-3.127-8.449-4.992-17.078-6.01-25.353c-8.26-18.413-29.26-23.657-33.766-24.617c-6.006,26.321,6.235,49.209,6.361,49.44
	C70.751,458.666,70.772,458.845,70.763,459.022z M182.024,427.178c0.773,0.046,1.539,0.069,2.296,0.069
	c2.018,0,3.978-0.163,5.85-0.487c0.544-0.095,0.909-0.612,0.814-1.156s-0.607-0.905-1.156-0.814c-2.422,0.42-5.008,0.55-7.685,0.393
	c-0.556-0.027-1.025,0.387-1.058,0.938S181.473,427.146,182.024,427.178z M154.384,417.788c6.353,4.009,13.58,6.938,20.899,8.47
	c0.069,0.015,0.138,0.021,0.206,0.021c0.463,0,0.879-0.323,0.978-0.795c0.113-0.541-0.233-1.07-0.774-1.184
	c-7.089-1.484-14.089-4.321-20.242-8.204c-0.466-0.294-1.084-0.155-1.379,0.313C153.777,416.876,153.917,417.493,154.384,417.788z
	 M180.46,189.522c0.287-0.543,0.806-0.924,1.41-1.034l6.642-1.21c0.12-0.022,0.241-0.033,0.36-0.033c0.815,0,1.565,0.5,1.866,1.283
	l4.686,12.2l0.817-13.311c0.056-0.919,0.732-1.68,1.638-1.845l5.449-0.993c0.12-0.022,0.24-0.033,0.359-0.033
	c0.776,0,1.498,0.454,1.824,1.182l5.414,12.078L211,184.838c0.006-0.962,0.695-1.784,1.641-1.956l6.629-1.208
	c0.11-0.022,0.223-0.035,0.338-0.039c0.02-0.001,0.04-0.001,0.059-0.001c0.003,0,0.006,0,0.01,0c1.102,0.003,1.993,0.897,1.993,2
	c0,0.075-0.004,0.149-0.012,0.222l-1.881,31.472c-0.055,0.92-0.731,1.683-1.638,1.848l-5.994,1.092
	c-0.12,0.022-0.24,0.033-0.359,0.033c-0.765,0-1.478-0.44-1.811-1.153l-5.853-12.511l-1.031,13.76
	c-0.068,0.908-0.74,1.655-1.636,1.818l-5.994,1.092c-0.12,0.022-0.24,0.033-0.359,0.033c-0.778,0-1.5-0.455-1.826-1.186
	l-12.875-28.885C180.152,190.71,180.173,190.065,180.46,189.522z M182.229,190.456l12.875,28.885l5.994-1.092l1.578-21.063
	l0.156-0.028l8.957,19.144l5.994-1.092l1.888-31.574L213,184.85l-0.127,21.817l-0.156,0.028l-9.032-20.149l-5.449,0.993
	l-1.358,22.122l-0.156,0.028l-7.853-20.444L182.229,190.456z M229.379,212.911l-3.051-30.573c-0.11-1.099,0.692-2.079,1.792-2.189
	l21.834-2.179c0.066-0.007,0.133-0.01,0.199-0.01c0.46,0,0.908,0.159,1.267,0.452c0.41,0.336,0.671,0.821,0.723,1.349l0.505,5.065
	c0.11,1.099-0.692,2.079-1.792,2.189l-13.493,1.347l0.31,3.106l11.236-1.121c0.066-0.007,0.133-0.01,0.199-0.01
	c0.46,0,0.908,0.159,1.267,0.452c0.411,0.336,0.671,0.821,0.723,1.349l0.508,5.091c0.11,1.099-0.692,2.079-1.792,2.189
	l-11.236,1.121l0.43,4.313l13.493-1.347c0.068-0.007,0.135-0.01,0.201-0.01c1.015,0,1.885,0.77,1.988,1.802l0.503,5.038
	c0.053,0.528-0.107,1.055-0.442,1.465c-0.336,0.41-0.821,0.671-1.349,0.723l-21.834,2.179c-0.068,0.007-0.135,0.01-0.201,0.01
	C230.352,214.713,229.482,213.943,229.379,212.911z M228.318,182.14l3.051,30.573l21.834-2.179l-0.503-5.038l-15.483,1.545
	l-0.828-8.293l13.226-1.32l-0.508-5.091l-13.226,1.32l-0.707-7.086l15.483-1.545l-0.505-5.065L228.318,182.14z M260.411,209.796
	l-2.38-30.632c-0.041-0.529,0.13-1.052,0.474-1.455c0.345-0.403,0.836-0.652,1.365-0.694l6.363-0.494
	c0.053-0.004,0.105-0.006,0.157-0.006c1.034,0,1.91,0.797,1.992,1.845l1.833,23.59l11.284-0.877
	c0.053-0.004,0.105-0.006,0.157-0.006c1.034,0,1.91,0.797,1.992,1.845l0.392,5.048c0.086,1.101-0.738,2.063-1.839,2.149
	l-19.642,1.526c-0.053,0.004-0.105,0.006-0.157,0.006C261.368,211.641,260.492,210.844,260.411,209.796z M260.025,179.009
	l2.38,30.632l19.641-1.526l-0.392-5.048l-13.278,1.031l-1.987-25.584L260.025,179.009z M285.386,190.417
	c-0.321-4.228,0.847-7.861,3.472-10.796c2.604-2.912,6.097-4.553,10.382-4.879c0.643-0.049,1.277-0.074,1.884-0.074
	c3.498,0,6.451,0.82,8.779,2.438c2.88,2.002,4.443,5.067,4.645,9.11c0.01,0.197-0.01,0.395-0.058,0.587l-0.041,0.162
	c-0.21,0.835-0.93,1.442-1.788,1.507l-6.154,0.468c-0.052,0.004-0.103,0.006-0.154,0.006c-1.036,0-1.912-0.799-1.992-1.849
	c-0.099-1.308-0.462-2.209-1.077-2.677c-0.562-0.428-1.428-0.645-2.574-0.645c-0.247,0-0.51,0.01-0.782,0.031
	c-1.386,0.105-2.389,0.637-3.155,1.674c-0.824,1.115-1.163,2.464-1.037,4.124l0.488,6.416c0.129,1.698,0.671,3.003,1.658,3.99
	c0.82,0.821,1.752,1.203,2.934,1.203c0.142,0,0.287-0.006,0.434-0.017c1.518-0.115,2.591-0.491,3.19-1.118
	c0.542-0.567,0.765-1.537,0.663-2.882c-0.04-0.529,0.131-1.052,0.477-1.455s0.837-0.651,1.366-0.691l6.152-0.468
	c0.051-0.004,0.102-0.006,0.152-0.006c0.8,0,1.53,0.479,1.843,1.226l0.065,0.154c0.077,0.182,0.126,0.375,0.146,0.572
	c0.414,4.068-0.682,7.355-3.257,9.77c-2.439,2.287-5.841,3.611-10.11,3.935c-0.491,0.037-0.98,0.056-1.455,0.056
	c-3.669,0-6.881-1.114-9.545-3.31c-3.039-2.505-4.743-5.928-5.066-10.174L285.386,190.417z M287.38,190.266l0.486,6.39
	c0.281,3.699,1.729,6.627,4.344,8.782c2.308,1.902,5.065,2.853,8.273,2.853c0.426,0,0.861-0.017,1.303-0.05
	c3.822-0.29,6.786-1.424,8.894-3.4c2.106-1.976,2.984-4.679,2.635-8.109l-0.065-0.154l-6.152,0.468
	c0.148,1.946-0.257,3.419-1.212,4.417c-0.955,0.999-2.45,1.575-4.484,1.73c-0.198,0.015-0.394,0.023-0.586,0.023
	c-1.707,0-3.157-0.596-4.349-1.79c-1.327-1.328-2.072-3.078-2.237-5.252l-0.488-6.416c-0.163-2.139,0.312-3.96,1.423-5.464
	s2.648-2.33,4.612-2.48c0.323-0.025,0.634-0.037,0.933-0.037c1.601,0,2.864,0.351,3.786,1.054c1.095,0.833,1.715,2.206,1.86,4.117
	l6.154-0.468l0.041-0.162c-0.171-3.408-1.434-5.93-3.789-7.568c-1.995-1.386-4.54-2.08-7.638-2.08c-0.559,0-1.137,0.023-1.732,0.068
	c-3.769,0.286-6.784,1.692-9.042,4.218C288.09,183.48,287.1,186.584,287.38,190.266z M329.346,202.634
	c-1.196-1.441-1.746-3.296-1.649-5.562l0.276-6.429c0.096-2.231,0.796-4.005,2.103-5.321c1.219-1.229,2.824-1.843,4.818-1.843
	c0.143,0,0.287,0.003,0.434,0.009c2.178,0.093,3.874,0.852,5.089,2.277c1.215,1.425,1.774,3.253,1.679,5.484l-0.276,6.429
	c-0.097,2.266-0.808,4.066-2.132,5.399c-1.237,1.246-2.848,1.869-4.831,1.869c-0.139,0-0.28-0.003-0.422-0.009
	C332.238,204.843,330.542,204.075,329.346,202.634z M329.695,197.158c-0.076,1.769,0.313,3.143,1.19,4.199
	c0.826,0.995,2.015,1.513,3.635,1.583c0.114,0.005,0.226,0.007,0.337,0.007c1.442,0,2.558-0.418,3.412-1.279
	c0.969-0.976,1.477-2.309,1.553-4.076l0.276-6.429c0.074-1.724-0.319-3.065-1.203-4.101c-0.845-0.992-2.04-1.507-3.652-1.576
	c-0.118-0.005-0.234-0.008-0.348-0.008c-1.452,0-2.563,0.409-3.399,1.252c-0.952,0.959-1.45,2.267-1.524,3.998L329.695,197.158z
	 M323.232,207.478c-2.796-2.843-4.12-6.465-3.936-10.766l0.275-6.402c0.184-4.282,1.803-7.764,4.812-10.349
	c2.762-2.373,6.233-3.576,10.318-3.576l0,0c0.306,0,0.616,0.007,0.931,0.02c4.49,0.193,8.165,1.707,10.923,4.502
	c2.799,2.835,4.124,6.445,3.941,10.729l-0.275,6.402c-0.184,4.298-1.808,7.793-4.828,10.388c-2.772,2.381-6.249,3.588-10.334,3.588
	c-0.305,0-0.614-0.007-0.927-0.02C329.658,211.802,325.991,210.283,323.232,207.478z M324.658,206.076
	c2.403,2.444,5.59,3.75,9.56,3.921c0.284,0.012,0.564,0.018,0.842,0.018c3.61,0,6.621-1.035,9.031-3.105
	c2.594-2.229,3.972-5.215,4.133-8.957l0.275-6.402c0.16-3.724-0.962-6.803-3.366-9.239c-2.403-2.434-5.599-3.737-9.585-3.909
	c-0.285-0.012-0.567-0.018-0.845-0.018c-3.61,0-6.615,1.031-9.015,3.093c-2.586,2.221-3.958,5.194-4.117,8.918l-0.275,6.402
	C321.134,200.539,322.255,203.632,324.658,206.076z M353.989,212.505c-0.342-0.405-0.51-0.93-0.466-1.458l2.564-30.617
	c0.044-0.529,0.297-1.018,0.702-1.36c0.362-0.306,0.82-0.473,1.291-0.473c0.055,0,0.111,0.002,0.167,0.007l8.042,0.673
	c0.836,0.07,1.539,0.654,1.762,1.463l5.011,18.227l8.016-17.14c0.331-0.707,1.04-1.153,1.811-1.153c0.056,0,0.112,0.002,0.168,0.007
	l7.989,0.669c1.101,0.092,1.918,1.059,1.826,2.16l-2.564,30.617c-0.044,0.529-0.297,1.018-0.702,1.36
	c-0.362,0.306-0.82,0.473-1.291,0.473c-0.055,0-0.111-0.002-0.167-0.007l-6.386-0.535c-0.529-0.044-1.018-0.297-1.36-0.702
	c-0.342-0.405-0.51-0.93-0.466-1.458l0.809-9.659l-4.875,10.041c-0.336,0.693-1.038,1.127-1.799,1.127
	c-0.056,0-0.112-0.002-0.168-0.007l-4.336-0.363c-0.825-0.069-1.522-0.639-1.753-1.433l-3.133-10.751l-0.812,9.7
	c-0.044,0.529-0.297,1.018-0.702,1.36c-0.362,0.306-0.82,0.473-1.291,0.473c-0.055,0-0.111-0.002-0.167-0.007l-6.36-0.533
	C354.821,213.163,354.331,212.91,353.989,212.505z M355.516,211.214l6.36,0.533l1.675-20l0.16-0.013l6.024,20.671l4.336,0.363
	l9.371-19.302l0.155,0.039l-1.668,19.921l6.386,0.535l2.564-30.617l-7.989-0.669l-10.219,21.851l-0.158-0.013l-6.39-23.242
	l-8.042-0.673L355.516,211.214z M394.927,216.723c-0.325-0.419-0.471-0.95-0.404-1.476l3.843-30.483
	c0.128-1.011,0.989-1.75,1.982-1.75c0.083,0,0.168,0.005,0.253,0.016l21.77,2.745c1.096,0.138,1.872,1.139,1.734,2.234l-0.637,5.05
	c-0.066,0.526-0.339,1.005-0.758,1.33c-0.353,0.274-0.784,0.42-1.226,0.42c-0.083,0-0.167-0.005-0.25-0.016l-13.454-1.696
	l-0.39,3.097l11.203,1.413c1.096,0.138,1.872,1.139,1.734,2.234l-0.64,5.076c-0.127,1.011-0.989,1.75-1.982,1.75
	c-0.083,0-0.168-0.005-0.253-0.016l-11.203-1.412l-0.542,4.3l13.454,1.696c0.526,0.066,1.005,0.339,1.33,0.758
	c0.325,0.419,0.471,0.95,0.404,1.476l-0.633,5.024c-0.128,1.011-0.989,1.75-1.982,1.75c-0.083,0-0.168-0.005-0.253-0.016
	l-21.77-2.745C395.731,217.415,395.252,217.142,394.927,216.723z M396.507,215.497l21.77,2.745l0.633-5.024l-15.438-1.946
	l1.042-8.268l13.188,1.663l0.64-5.076l-13.188-1.663l0.891-7.065l15.438,1.946l0.637-5.05l-21.77-2.745L396.507,215.497z
	 M306.947,128.044c-0.188-0.189-0.292-0.446-0.29-0.712c0.003-0.33,0.558-32.984,25.35-33.834
	c16.225-0.556,22.13,12.588,23.576,16.724c2.696-1.366,9.872-4.313,17.588-1.731c6.982,2.335,12.477,8.556,16.331,18.488
	c0.119,0.308,0.079,0.654-0.107,0.927c-0.186,0.273-0.495,0.435-0.825,0.435h-80.912
	C307.391,128.34,307.135,128.234,306.947,128.044z M308.689,126.34h78.398c-3.581-8.548-8.466-13.91-14.533-15.947
	c-8.679-2.914-16.951,2.091-17.033,2.142c-0.271,0.168-0.608,0.194-0.903,0.075c-0.296-0.121-0.517-0.375-0.594-0.686
	c-0.173-0.695-4.418-17.027-21.949-16.427C311.276,96.21,308.949,120.907,308.689,126.34z M397.785,128.028
	c-0.189-0.199-0.288-0.467-0.273-0.741c0.008-0.138,0.891-13.757,14.251-14.234c14.53-0.49,16.514,14.017,16.531,14.164
	c0.036,0.285-0.053,0.571-0.242,0.786c-0.19,0.215-0.463,0.338-0.75,0.338h-28.791C398.236,128.34,397.974,128.228,397.785,128.028z
	 M399.629,126.34h26.468c-0.729-3.145-3.7-11.664-14.262-11.289C402.204,115.396,400.083,123.401,399.629,126.34z"></path>
</svg>